<?xml version="1.0" encoding="utf-8"?>
<!-- Generator: Adobe Illustrator 19.2.1, SVG Export Plug-In . SVG Version: 6.00 Build 0)  -->
<svg version="1.1" xmlns="http://www.w3.org/2000/svg" xmlns:xlink="http://www.w3.org/1999/xlink" x="0px" y="0px"
	 viewBox="0 0 512 512" style="enable-background:new 0 0 512 512;" xml:space="preserve">
<style type="text/css">
	.st0{display:none;}
	.st1{fill:#75A897;}
	.st2{fill:#D5872A;}
	.st3{fill:#5082A9;}
	.st4{fill:#E09C6F;}
	.st5{fill:#E4C856;}
	.st6{fill:#87B7DD;}
	.st7{fill:#B9BDC2;}
	.st8{fill:#57646E;}
	.st9{fill:#CA6A46;}
	.st10{fill:#1F3049;}
	.st11{fill:#298063;}
	.st12{fill:#C93A3A;}
	.st13{fill:#DA8B80;}
	.st14{fill:#C9402E;}
	.st15{fill:#E29E6F;}
	.st16{fill:#A32929;}
	.st17{fill:#F5F5F5;}
	.st18{fill:#C9553E;}
	.st19{fill:#E09E9A;}
	.st20{fill:#FFFFFF;}
	.st21{fill:#E6A585;}
	.st22{fill:#4E3333;}
	.st23{fill:#2B5F87;}
	.st24{opacity:0.31;fill:#FFFFFF;}
	.st25{fill:#E6CA56;}
	.st26{fill:#4D917B;}
	.st27{fill:#B8B8B8;}
	.st28{fill:#8998A0;}
	.st29{fill:#394755;}
	.st30{fill:#F2D1B4;}
	.st31{fill:#ECE4C7;}
	.st32{fill:#F1CB58;}
	.st33{fill:#E1E1E1;}
</style>
<g id="GUIDELINES" class="st0">
</g>
<g id="Layer_9">
</g>
<g id="ICON">
	<ellipse class="st8" cx="256.4" cy="255.4" rx="256" ry="256"/>
</g>
<g id="Layer_8">
	<g>
		<path class="st9" d="M338.6,273.1v-90.3c0-33-26.8-59.8-59.8-59.8h-48.9c-33,0-59.8,26.8-59.8,59.8v90.3H338.6z"/>
		<path class="st4" d="M186.1,257.1v-74.3c0-24.1,19.6-43.8,43.8-43.8h48.9c24.1,0,43.8,19.6,43.8,43.8v74.3H186.1z"/>
		<g>
			<polygon class="st10" points="183.8,377 159.9,377 174.7,332.2 210.9,332.2 			"/>
			<polygon class="st10" points="325,377 348.8,377 334,332.2 297.8,332.2 			"/>
		</g>
		<path class="st8" d="M399.5,210.1c-5.9-9.3-15.2-15.8-26-18.2c-2.9-0.7-6-1-9-1c-19.3,0-36.2,13.7-40.4,32.5l-5.1,23.3H189.7
			l-5.1-23.3c-4.2-18.8-21.2-32.5-40.4-32.5c-3,0-6,0.3-9,1c-10.8,2.4-20,8.8-26,18.2c-5.9,9.3-7.9,20.4-5.5,31.2l13.5,61.1
			c0.4,2.4,0.9,4.9,1.6,7.2l0.5,2.1c4.2,18.8,21.1,32.5,40.4,32.5c0.9,0,1.7,0,2.6-0.1c1.1,0.1,2.1,0.1,3.1,0.1h177.7
			c1.1,0,2.1,0,3.2-0.1c0.9,0.1,1.8,0.1,2.7,0.1c0,0,0,0,0,0c19.3,0,36.2-13.7,40.4-32.5l15.6-70.4
			C407.4,230.5,405.4,219.4,399.5,210.1z"/>
		<ellipse class="st8" cx="254.4" cy="257.1" rx="84.9" ry="27.5"/>
		<g>
			<path class="st9" d="M165.5,330.5c-19.4,0-35.1-15.7-35.1-35.1l0,0c0-19.4,15.7-35.2,35.1-35.2h177.7c19.4,0,35.1,15.7,35.1,35.2
				l0,0c0,19.4-15.7,35.1-35.1,35.1H165.5z"/>
			<g>
				<path class="st9" d="M186.9,296.7c3.3,15-6.2,29.9-21.2,33.2l0,0c-15,3.3-29.9-6.2-33.2-21.2L117,238.3
					c-3.3-15,6.2-29.9,21.2-33.2l0,0c15-3.3,29.9,6.2,33.2,21.2L186.9,296.7z"/>
				<path class="st9" d="M321.9,296.7c-3.3,15,6.2,29.9,21.2,33.2l0,0c15,3.3,29.9-6.2,33.2-21.2l15.6-70.4
					c3.3-15-6.2-29.9-21.2-33.2l0,0c-15-3.3-29.9,6.2-33.2,21.2L321.9,296.7z"/>
			</g>
		</g>
		<ellipse class="st9" cx="254.4" cy="270.3" rx="82.8" ry="26.5"/>
	</g>
</g>
</svg>
